<svg width="1024" height="1024" xmlns="http://www.w3.org/2000/svg" p-id="2139" version="1.1" class="icon" t="1581071155671">

 <g>
  <title>Layer 1</title>
  <path id="svg_2" p-id="2141" fill="#FFFFFF" d="m698.2594,289.85847l-504.25379,-90.15598l267.86921,664.07574l367.6205,-445.48248l-131.23592,-128.43728zm63.36905,121.14085l-191.30659,30.98487l121.14085,-102.05017l70.16574,71.0653zm-124.83904,-86.55774l-125.03895,103.84929l-205.69956,-170.31683l330.73851,66.46754zm-174.91459,429.99005l-188.60791,-467.27185l217.6937,187.6084l-29.08579,279.66345zm37.38174,0l32.784,-260.57277l214.09546,-40.08043l-246.87946,300.6532z"/>
  <g stroke="null">

   <path stroke="null" p-id="1058" fill="#F3BA2F" d="m511.00005,513.00005m-510.49946,0a510.49946,510.49946 0 1 0 1020.99893,0a510.49946,510.49946 0 1 0 -1020.99893,0z"/>
   <path stroke="null" p-id="1059" fill="#FFFFFF" d="m419.74442,512.99663l91.23966,-91.23966l91.23966,91.23966l-91.23966,91.23966l-91.23966,-91.23966z"/>
   <path stroke="null" p-id="1060" fill="#FFFFFF" d="m419.74898,213.73899l-149.62483,149.62483l91.23966,91.25107l149.63623,-149.63623l149.62483,149.63623l91.23966,-91.25107l-149.62483,-149.62483l-91.23966,-91.23966l-91.25107,91.23966zm182.49072,598.52212l149.62483,-149.63623l-91.23966,-91.23966l-149.62483,149.62483l-149.63623,-149.62483l-91.23966,91.23966l149.62483,149.63623l91.25107,91.23966l91.23966,-91.23966zm-481.75407,-299.26562l91.23966,-91.23966l91.23966,91.23966l-91.23966,91.23966l-91.23966,-91.23966zm598.51756,0.00228l91.23966,-91.23966l91.23966,91.23966l-91.23966,91.23966l-91.23966,-91.23966z"/>
  </g>
 </g>
</svg>