<?xml version="1.0" standalone="no"?><!DOCTYPE svg PUBLIC "-//W3C//DTD SVG 1.1//EN" "http://www.w3.org/Graphics/SVG/1.1/DTD/svg11.dtd"><svg t="1583064256068" class="icon" viewBox="0 0 1024 1024" version="1.1" xmlns="http://www.w3.org/2000/svg" p-id="3985" xmlns:xlink="http://www.w3.org/1999/xlink" width="32" height="32"><defs><style type="text/css"></style></defs><path d="M376.92416 624.40448c-17.22368 9.83552-39.296 2.9696-47.67744-14.81728L234.48576 408.43264c-7.90016-16.77312 11.9296-32.98304 27.19744-22.23104l111.93344 78.83264a41.28768 41.28768 0 0 0 40.25344 4.02432l510.29504-223.5392C832.46592 140.32896 681.69216 71.68 511.232 71.68 231.71584 71.68 5.12 256.25088 5.12 483.92192c0 126.8736 70.36416 240.3584 181.03808 315.9808 2.02752 1.3824 3.48672 3.44064 4.096 5.80608 3.24608 12.57472 3.23072 25.7536-0.02048 38.33344l-22.16448 85.71904c-2.72384 13.5168 12.00128 23.88992 24.10496 16.9728l111.25248-63.5904a75.24352 75.24352 0 0 1 41.4208-9.76896l-0.1536-0.0768c52.15744 14.80192 108.1856 22.87104 166.53824 22.87104 279.51616 0 506.112-184.56576 506.112-412.24192 0-69.36576-21.06368-134.7072-58.2144-192.06144L376.92928 624.40448z" p-id="3986" fill="#51AA38"></path></svg>